#!OML:ASF X:\für Bonn\!DataBase\2005_08_12_Daniel\c3d\Daniel.ASF
:FULLY-SPECIFIED
:DEGREES
258
root -0.947506 17.233 -9.59139 176.478 -8.92518 -179.33
lowerback 21.9354 -4.30347 0.0264291
upperback 6.89204 -7.01891 -1.98983
thorax -4.91211 -3.94991 -0.304003
lowerneck 0.637376 1.05194 -5.76906
upperneck 14.9399 2.56032 0.808322
head 4.79659 1.37335 1.43017
rclavicle 2.38542e-015 -1.43125e-014
rhumerus -35.2413 -7.62662 -88.3871
rradius 18.469
rwrist 18.2151
rhand -14.8677 14.251
rfingers 7.12502
rthumb 11.2924 -15.425
lclavicle 2.38542e-015 -1.43125e-014
lhumerus -44.1741 65.7518 44.8419
lradius 12.2481
lwrist -76.7081
lhand -11.8573 -3.75586
lfingers 7.12502
lthumb 14.1945 25.7392
rfemur -25.5326 11.9346 15.802
rtibia 17.9931
rfoot -16.9041 -19.4929
rtoes -6.86423
lfemur 18.5411 -7.08111 -25.4303
ltibia 17.4271
lfoot -30.46 4.63822
ltoes -4.98483
259
root -0.950477 17.2225 -9.71982 176.647 -8.90192 -179.427
lowerback 21.5568 -4.37132 0.0299514
upperback 6.76829 -7.06362 -1.97508
thorax -4.85286 -3.95621 -0.306558
lowerneck 0.458701 1.09033 -5.60671
upperneck 15.0148 2.63305 0.683389
head 4.85947 1.40911 1.36561
rclavicle -3.29983e-014 -4.37326e-014
rhumerus -35.2861 -9.31924 -87.4781
rradius 17.9991
rwrist 19.5732
rhand -14.809 14.2118
rfingers 7.12502
rthumb 11.349 -15.4611
lclavicle -3.29983e-014 -4.37326e-014
lhumerus -42.6378 64.7049 46.6036
lradius 12.5047
lwrist -74.7709
lhand -11.9758 -3.67855
lfingers 7.12502
lthumb 14.0803 25.8244
rfemur -25.7822 12.0014 15.6681
rtibia 18.078
rfoot -16.2732 -19.2914
rtoes -5.38189
lfemur 19.4558 -7.24584 -25.5965
ltibia 16.3028
lfoot -30.0492 4.79462
ltoes -4.91986
260
root -0.953044 17.2113 -9.84885 176.781 -8.88537 -179.522
lowerback 21.2379 -4.43318 0.0379651
upperback 6.64914 -7.10363 -1.95332
thorax -4.81782 -3.96152 -0.300488
lowerneck 0.174812 1.11374 -5.46096
upperneck 15.5776 2.6859 0.637415
head 4.57907 1.44001 1.23396
rclavicle -3.02153e-014 7.95139e-016
rhumerus -35.351 -10.9845 -86.528
rradius 17.511
rwrist 20.9708
rhand -14.8006 14.1514
rfingers 7.12502
rthumb 11.357 -15.521
lclavicle -3.02153e-014 7.95139e-016
lhumerus -40.4457 63.0936 49.1306
lradius 12.7714
lwrist -72.1228
lhand -12.1481 -3.72972
lfingers 7.12502
lthumb 13.9143 25.7848
rfemur -26.1133 11.7246 15.6722
rtibia 18.4908
rfoot -15.3351 -18.7818
rtoes -3.77707
lfemur 20.4131 -7.39171 -25.7482
ltibia 15.1643
lfoot -29.5847 4.90173
ltoes -4.86775
261
root -0.955399 17.2008 -9.97852 176.917 -8.88427 -179.561
lowerback 20.9237 -4.50293 0.0836397
upperback 6.53412 -7.14395 -1.88332
thorax -4.77774 -3.96742 -0.26453
lowerneck -0.0896083 1.14109 -5.31958
upperneck 15.7159 2.76103 0.452623
head 4.66812 1.47112 1.16177
rclavicle 4.92986e-014 1.90833e-014
rhumerus -35.3904 -12.5911 -85.5302
rradius 16.9928
rwrist 22.3281
rhand -14.7915 14.0907
rfingers 7.12502
rthumb 11.3659 -15.5813
lclavicle 4.92986e-014 1.90833e-014
lhumerus -38.4969 61.4324 51.5307
lradius 13.1256
lwrist -69.408
lhand -12.3444 -3.97411
lfingers 7.12502
lthumb 13.7251 25.5532
rfemur -26.513 11.2122 15.8249
rtibia 19.1686
rfoot -14.2473 -18.0428
rtoes -2.58975
lfemur 21.3506 -7.54961 -25.8356
ltibia 14.0551
lfoot -29.0654 5.00176
ltoes -4.77612
262
root -0.958061 17.1905 -10.1097 177.033 -8.86802 -179.62
lowerback 20.6527 -4.55592 0.118624
upperback 6.4014 -7.16423 -1.8088
thorax -4.77633 -3.96269 -0.217989
lowerneck -0.203881 1.1672 -5.26805
upperneck 15.8123 2.82526 0.33558
head 4.71788 1.499 1.12259
rclavicle -4.49253e-014 -3.26007e-014
rhumerus -35.5359 -14.3937 -84.3614
rradius 16.4607
rwrist 23.8937
rhand -14.766 14.0687
rfingers 7.12502
rthumb 11.3904 -15.602
lclavicle -4.49253e-014 -3.26007e-014
lhumerus -36.6903 59.5102 53.9011
lradius 13.5333
lwrist -66.4877
lhand -12.6208 -4.35719
lfingers 7.12502
lthumb 13.4587 25.188
rfemur -26.9351 10.4135 16.0878
rtibia 20.0589
rfoot -13.0139 -17.0328
rtoes -2.347
lfemur 22.3005 -7.6285 -25.9179
ltibia 12.9526
lfoot -28.5334 5.06047
ltoes -4.7741
263
root -0.959936 17.1804 -10.2417 177.158 -8.86028 -179.66
lowerback 20.3893 -4.59299 0.166173
upperback 6.27868 -7.16267 -1.71472
thorax -4.76601 -3.94845 -0.163301
lowerneck -0.398597 1.17117 -5.19254
upperneck 15.9038 2.85905 0.199957
head 4.78103 1.50944 1.07341
rclavicle 3.26007e-014 3.97569e-015
rhumerus -35.6755 -16.3471 -83.0674
rradius 15.8675
rwrist 25.6022
rhand -14.7782 14.1061
rfingers 7.12502
rthumb 11.3786 -15.5651
lclavicle 3.26007e-014 3.97569e-015
lhumerus -34.9449 57.3949 56.2771
lradius 13.9816
lwrist -63.4163
lhand -12.9062 -4.82055
lfingers 7.12502
lthumb 13.1836 24.7426
rfemur -27.4125 9.62068 16.3817
rtibia 21.1107
rfoot -11.7981 -16.033
rtoes -2.4299
lfemur 23.2357 -7.684 -25.9508
ltibia 11.8538
lfoot -27.9927 5.06171
ltoes -4.90211
264
root -0.961147 17.17 -10.3777 177.241 -8.8393 -179.663
lowerback 20.163 -4.62259 0.24928
upperback 6.15541 -7.14521 -1.59949
thorax -4.77594 -3.92697 -0.106359
lowerneck -0.609053 1.17181 -5.11586
upperneck 16.051 2.90033 0.0424954
head 4.86451 1.52335 1.01872
rclavicle -4.17448e-014 -2.06736e-014
rhumerus -35.8947 -18.0971 -81.7987
rradius 15.3529
rwrist 27.0639
rhand -14.875 14.1176
rfingers 7.12502
rthumb 11.2853 -15.5588
lclavicle -4.17448e-014 -2.06736e-014
lhumerus -33.405 55.0375 58.5927
lradius 14.5265
lwrist -60.0895
lhand -13.2303 -5.35126
lfingers 7.12502
lthumb 12.8712 24.2319
rfemur -27.859 8.73928 16.787
rtibia 22.2596
rfoot -10.5413 -14.9543
rtoes -2.82046
lfemur 24.1765 -7.69144 -25.9276
ltibia 10.8306
lfoot -27.4369 5.03061
ltoes -4.93084
265
root -0.963213 17.1593 -10.5144 177.32 -8.82122 -179.647
lowerback 19.9613 -4.64973 0.367802
upperback 6.02161 -7.1174 -1.48351
thorax -4.81341 -3.89988 -0.067627
lowerneck -0.755278 1.15883 -4.99464
upperneck 16.1893 2.92444 -0.142663
head 4.93598 1.53143 0.946549
rclavicle -6.89783e-014 4.77083e-015
rhumerus -36.1736 -19.9722 -80.4351
rradius 14.8304
rwrist 28.6367
rhand -14.9077 14.0901
rfingers 7.12502
rthumb 11.2537 -15.588
lclavicle -6.89783e-014 4.77083e-015
lhumerus -32.0577 52.4296 60.8186
lradius 15.1524
lwrist -56.5036
lhand -13.5278 -5.86144
lfingers 7.12502
lthumb 12.5844 23.7395
rfemur -28.297 7.84108 17.2188
rtibia 23.4424
rfoot -9.33484 -13.898
rtoes -3.06582
lfemur 25.019 -7.48389 -25.7742
ltibia 9.98004
lfoot -26.937 4.73211
ltoes -5.04076
266
root -0.963943 17.1492 -10.6557 177.382 -8.80989 -179.593
lowerback 19.7648 -4.68948 0.51257
upperback 5.89393 -7.10185 -1.34365
thorax -4.84655 -3.87979 -0.0152992
lowerneck -0.910357 1.15637 -4.96226
upperneck 16.3288 2.96279 -0.286719
head 5.00768 1.54348 0.902407
rclavicle -7.0171e-014 7.95139e-015
rhumerus -36.467 -21.6271 -79.1177
rradius 14.3605
rwrist 30.0017
rhand -15.0055 14.1122
rfingers 7.12502
rthumb 11.1595 -15.5711
lclavicle -7.0171e-014 7.95139e-015
lhumerus -31.0341 49.8367 62.8002
lradius 15.8602
lwrist -52.9451
lhand -13.7969 -6.4102
lfingers 7.12502
lthumb 12.3249 23.2065
rfemur -28.6479 7.02827 17.6614
rtibia 24.5814
rfoot -8.34079 -12.8925
rtoes -3.02092
lfemur 25.7041 -7.29298 -25.5667
ltibia 9.4172
lfoot -26.4929 4.47225
ltoes -5.22619
